<mxfile host="app.diagrams.net" modified="2022-03-10T11:40:29.633Z" agent="5.0 (X11)" etag="RsfX6fc_ETFBXJCl7Cr3" version="17.1.0" type="github">
  <diagram id="QZjSDfvUHR16BRDIlRbK" name="Page-1">
    <mxGraphModel dx="1571" dy="906" grid="1" gridSize="10" guides="1" tooltips="1" connect="1" arrows="1" fold="1" page="1" pageScale="1" pageWidth="1654" pageHeight="1169" math="0" shadow="0">
      <root>
        <mxCell id="0" />
        <mxCell id="1" parent="0" />
        <mxCell id="dnEeHa7-O4VVZa1QLRPy-1" value="" style="whiteSpace=wrap;html=1;aspect=fixed;fillColor=#e1d5e7;strokeColor=#9673a6;" vertex="1" parent="1">
          <mxGeometry x="210" y="226" width="80" height="80" as="geometry" />
        </mxCell>
        <mxCell id="dnEeHa7-O4VVZa1QLRPy-2" value="" style="whiteSpace=wrap;html=1;aspect=fixed;fillColor=#ffe6cc;strokeColor=#d79b00;" vertex="1" parent="1">
          <mxGeometry x="200" y="236" width="80" height="80" as="geometry" />
        </mxCell>
        <mxCell id="dnEeHa7-O4VVZa1QLRPy-3" value="" style="whiteSpace=wrap;html=1;aspect=fixed;fillColor=#d5e8d4;strokeColor=#82b366;" vertex="1" parent="1">
          <mxGeometry x="190" y="246" width="80" height="80" as="geometry" />
        </mxCell>
        <mxCell id="dnEeHa7-O4VVZa1QLRPy-4" value="" style="whiteSpace=wrap;html=1;aspect=fixed;fillColor=#fff2cc;strokeColor=#d6b656;" vertex="1" parent="1">
          <mxGeometry x="180" y="256" width="80" height="80" as="geometry" />
        </mxCell>
        <mxCell id="dnEeHa7-O4VVZa1QLRPy-5" value="" style="whiteSpace=wrap;html=1;aspect=fixed;fillColor=#b1ddf0;strokeColor=#10739e;" vertex="1" parent="1">
          <mxGeometry x="30" y="241" width="80" height="80" as="geometry" />
        </mxCell>
        <mxCell id="dnEeHa7-O4VVZa1QLRPy-6" value="" style="whiteSpace=wrap;html=1;aspect=fixed;fillColor=#ffe6cc;strokeColor=#d79b00;" vertex="1" parent="1">
          <mxGeometry x="695" y="176" width="80" height="80" as="geometry" />
        </mxCell>
        <mxCell id="dnEeHa7-O4VVZa1QLRPy-7" value="" style="whiteSpace=wrap;html=1;aspect=fixed;fillColor=#fff2cc;strokeColor=#d6b656;" vertex="1" parent="1">
          <mxGeometry x="685" y="186" width="80" height="80" as="geometry" />
        </mxCell>
        <mxCell id="dnEeHa7-O4VVZa1QLRPy-8" value="" style="whiteSpace=wrap;html=1;aspect=fixed;fillColor=#d5e8d4;strokeColor=#82b366;" vertex="1" parent="1">
          <mxGeometry x="675" y="196" width="80" height="80" as="geometry" />
        </mxCell>
        <mxCell id="dnEeHa7-O4VVZa1QLRPy-9" value="" style="whiteSpace=wrap;html=1;aspect=fixed;fillColor=#e1d5e7;strokeColor=#9673a6;" vertex="1" parent="1">
          <mxGeometry x="665" y="206" width="80" height="80" as="geometry" />
        </mxCell>
        <mxCell id="dnEeHa7-O4VVZa1QLRPy-10" value="" style="whiteSpace=wrap;html=1;aspect=fixed;fillColor=#ffe6cc;strokeColor=#d79b00;" vertex="1" parent="1">
          <mxGeometry x="655" y="216" width="80" height="80" as="geometry" />
        </mxCell>
        <mxCell id="dnEeHa7-O4VVZa1QLRPy-11" value="" style="whiteSpace=wrap;html=1;aspect=fixed;fillColor=#fff2cc;strokeColor=#d6b656;" vertex="1" parent="1">
          <mxGeometry x="645" y="226" width="80" height="80" as="geometry" />
        </mxCell>
        <mxCell id="dnEeHa7-O4VVZa1QLRPy-12" value="" style="whiteSpace=wrap;html=1;aspect=fixed;fillColor=#f5f5f5;fontColor=#333333;strokeColor=#666666;" vertex="1" parent="1">
          <mxGeometry x="635" y="236" width="80" height="80" as="geometry" />
        </mxCell>
        <mxCell id="dnEeHa7-O4VVZa1QLRPy-13" value="" style="whiteSpace=wrap;html=1;aspect=fixed;" vertex="1" parent="1">
          <mxGeometry x="625" y="246" width="80" height="80" as="geometry" />
        </mxCell>
        <mxCell id="dnEeHa7-O4VVZa1QLRPy-14" value="" style="whiteSpace=wrap;html=1;aspect=fixed;fillColor=#dae8fc;strokeColor=#6c8ebf;" vertex="1" parent="1">
          <mxGeometry x="625" y="246" width="80" height="80" as="geometry" />
        </mxCell>
        <mxCell id="dnEeHa7-O4VVZa1QLRPy-15" value="" style="whiteSpace=wrap;html=1;aspect=fixed;fillColor=#d5e8d4;strokeColor=#82b366;" vertex="1" parent="1">
          <mxGeometry x="615" y="256" width="80" height="80" as="geometry" />
        </mxCell>
        <mxCell id="dnEeHa7-O4VVZa1QLRPy-16" value="" style="whiteSpace=wrap;html=1;aspect=fixed;fillColor=#e1d5e7;strokeColor=#9673a6;" vertex="1" parent="1">
          <mxGeometry x="605" y="265" width="81" height="81" as="geometry" />
        </mxCell>
        <mxCell id="dnEeHa7-O4VVZa1QLRPy-17" value="" style="whiteSpace=wrap;html=1;aspect=fixed;fillColor=#ffe6cc;strokeColor=#d79b00;" vertex="1" parent="1">
          <mxGeometry x="595" y="276" width="80" height="80" as="geometry" />
        </mxCell>
        <mxCell id="dnEeHa7-O4VVZa1QLRPy-18" value="" style="whiteSpace=wrap;html=1;aspect=fixed;fillColor=#fff2cc;strokeColor=#d6b656;" vertex="1" parent="1">
          <mxGeometry x="585" y="286" width="80" height="80" as="geometry" />
        </mxCell>
        <mxCell id="dnEeHa7-O4VVZa1QLRPy-19" value="" style="whiteSpace=wrap;html=1;aspect=fixed;fillColor=#d5e8d4;strokeColor=#82b366;" vertex="1" parent="1">
          <mxGeometry x="575" y="296" width="80" height="80" as="geometry" />
        </mxCell>
        <mxCell id="dnEeHa7-O4VVZa1QLRPy-20" value="" style="whiteSpace=wrap;html=1;aspect=fixed;fillColor=#dae8fc;strokeColor=#6c8ebf;" vertex="1" parent="1">
          <mxGeometry x="565" y="306" width="80" height="80" as="geometry" />
        </mxCell>
        <mxCell id="dnEeHa7-O4VVZa1QLRPy-21" value="" style="whiteSpace=wrap;html=1;aspect=fixed;fillColor=#fff2cc;strokeColor=#d6b656;" vertex="1" parent="1">
          <mxGeometry x="555" y="316" width="80" height="80" as="geometry" />
        </mxCell>
        <mxCell id="dnEeHa7-O4VVZa1QLRPy-49" value="" style="shape=flexArrow;endArrow=classic;html=1;rounded=0;endWidth=11.764705882352942;endSize=7.211764705882353;fillColor=#6d8764;strokeColor=#3A5431;" edge="1" parent="1">
          <mxGeometry width="50" height="50" relative="1" as="geometry">
            <mxPoint x="300" y="279.5" as="sourcePoint" />
            <mxPoint x="350" y="279.5" as="targetPoint" />
          </mxGeometry>
        </mxCell>
        <mxCell id="dnEeHa7-O4VVZa1QLRPy-51" value="" style="shape=flexArrow;endArrow=classic;html=1;rounded=0;endWidth=11.764705882352942;endSize=7.211764705882353;fillColor=#6d8764;strokeColor=#3A5431;" edge="1" parent="1">
          <mxGeometry width="50" height="50" relative="1" as="geometry">
            <mxPoint x="524.9999999999998" y="279.5" as="sourcePoint" />
            <mxPoint x="574.9999999999998" y="279.5" as="targetPoint" />
          </mxGeometry>
        </mxCell>
        <mxCell id="dnEeHa7-O4VVZa1QLRPy-52" value="" style="shape=flexArrow;endArrow=classic;html=1;rounded=0;endWidth=11.764705882352942;endSize=7.211764705882353;fillColor=#76608a;strokeColor=#432D57;" edge="1" parent="1">
          <mxGeometry width="50" height="50" relative="1" as="geometry">
            <mxPoint x="763.9999999999998" y="280.5" as="sourcePoint" />
            <mxPoint x="813.9999999999998" y="280.5" as="targetPoint" />
          </mxGeometry>
        </mxCell>
        <mxCell id="dnEeHa7-O4VVZa1QLRPy-54" value="" style="whiteSpace=wrap;html=1;aspect=fixed;fillColor=#e1d5e7;strokeColor=#9673a6;" vertex="1" parent="1">
          <mxGeometry x="545" y="326" width="80" height="80" as="geometry" />
        </mxCell>
        <mxCell id="dnEeHa7-O4VVZa1QLRPy-56" value="&lt;b&gt;&lt;font style=&quot;font-size: 14px&quot;&gt;Input&lt;/font&gt;&lt;/b&gt;" style="text;html=1;align=center;verticalAlign=middle;resizable=0;points=[];autosize=1;strokeColor=none;fillColor=none;" vertex="1" parent="1">
          <mxGeometry x="45" y="214" width="50" height="20" as="geometry" />
        </mxCell>
        <mxCell id="dnEeHa7-O4VVZa1QLRPy-57" value="&lt;div&gt;&lt;b&gt;&lt;font style=&quot;font-size: 13px&quot;&gt;(Ws x C x 1)&lt;br&gt;&lt;/font&gt;&lt;/b&gt;&lt;/div&gt;" style="text;html=1;align=center;verticalAlign=middle;resizable=0;points=[];autosize=1;strokeColor=none;fillColor=none;" vertex="1" parent="1">
          <mxGeometry x="25" y="324" width="90" height="20" as="geometry" />
        </mxCell>
        <mxCell id="dnEeHa7-O4VVZa1QLRPy-58" value="&lt;div&gt;&lt;i&gt;&lt;b&gt;&lt;font style=&quot;font-size: 12px&quot; size=&quot;3&quot;&gt;&lt;font style=&quot;font-size: 12px&quot;&gt;K &lt;/font&gt;3x3&lt;/font&gt;&lt;/b&gt;&lt;/i&gt;&lt;/div&gt;&lt;div&gt;&lt;i&gt;&lt;b&gt;&lt;font style=&quot;font-size: 12px&quot; size=&quot;3&quot;&gt;filters 4&lt;br&gt;&lt;/font&gt;&lt;/b&gt;&lt;/i&gt;&lt;/div&gt;" style="text;html=1;align=center;verticalAlign=middle;resizable=0;points=[];autosize=1;strokeColor=none;fillColor=none;fontSize=14;" vertex="1" parent="1">
          <mxGeometry x="120" y="199" width="60" height="40" as="geometry" />
        </mxCell>
        <mxCell id="dnEeHa7-O4VVZa1QLRPy-59" value="&lt;div&gt;&lt;b&gt;&lt;font style=&quot;font-size: 13px&quot;&gt;(Ws x C x 4)&lt;br&gt;&lt;/font&gt;&lt;/b&gt;&lt;/div&gt;" style="text;html=1;align=center;verticalAlign=middle;resizable=0;points=[];autosize=1;strokeColor=none;fillColor=none;fontSize=12;" vertex="1" parent="1">
          <mxGeometry x="170" y="350" width="90" height="20" as="geometry" />
        </mxCell>
        <mxCell id="dnEeHa7-O4VVZa1QLRPy-60" value="&lt;div&gt;&lt;i&gt;&lt;b&gt;&lt;font style=&quot;font-size: 12px&quot;&gt;&lt;font style=&quot;font-size: 12px&quot;&gt;K &lt;/font&gt;3x3&lt;/font&gt;&lt;/b&gt;&lt;/i&gt;&lt;/div&gt;&lt;div&gt;&lt;i&gt;&lt;b&gt;&lt;font style=&quot;font-size: 12px&quot;&gt;filters 8&lt;br&gt;&lt;/font&gt;&lt;/b&gt;&lt;/i&gt;&lt;/div&gt;" style="text;html=1;align=center;verticalAlign=middle;resizable=0;points=[];autosize=1;strokeColor=none;fillColor=none;fontSize=12;" vertex="1" parent="1">
          <mxGeometry x="310" y="204" width="60" height="30" as="geometry" />
        </mxCell>
        <mxCell id="dnEeHa7-O4VVZa1QLRPy-61" value="&lt;div&gt;&lt;b&gt;&lt;font style=&quot;font-size: 13px&quot;&gt;(Ws x C x 8)&lt;br&gt;&lt;/font&gt;&lt;/b&gt;&lt;/div&gt;" style="text;whiteSpace=wrap;html=1;fontSize=12;" vertex="1" parent="1">
          <mxGeometry x="825" y="362" width="90" height="30" as="geometry" />
        </mxCell>
        <mxCell id="dnEeHa7-O4VVZa1QLRPy-62" value="" style="shape=curlyBracket;whiteSpace=wrap;html=1;rounded=1;fontSize=12;direction=north;" vertex="1" parent="1">
          <mxGeometry x="20" y="460" width="620" height="20" as="geometry" />
        </mxCell>
        <mxCell id="dnEeHa7-O4VVZa1QLRPy-63" value="&lt;b&gt;Feature Extraction&lt;/b&gt;" style="text;html=1;align=center;verticalAlign=middle;resizable=0;points=[];autosize=1;strokeColor=none;fillColor=none;fontSize=12;" vertex="1" parent="1">
          <mxGeometry x="230" y="490" width="120" height="20" as="geometry" />
        </mxCell>
        <mxCell id="dnEeHa7-O4VVZa1QLRPy-65" value="" style="shape=curlyBracket;whiteSpace=wrap;html=1;rounded=1;fontSize=12;direction=north;" vertex="1" parent="1">
          <mxGeometry x="800" y="460" width="530" height="20" as="geometry" />
        </mxCell>
        <mxCell id="dnEeHa7-O4VVZa1QLRPy-66" value="&lt;b&gt;Signal Reconstruction&lt;/b&gt;" style="text;html=1;align=center;verticalAlign=middle;resizable=0;points=[];autosize=1;strokeColor=none;fillColor=none;fontSize=12;" vertex="1" parent="1">
          <mxGeometry x="1080" y="490" width="140" height="20" as="geometry" />
        </mxCell>
        <mxCell id="dnEeHa7-O4VVZa1QLRPy-67" value="&lt;div&gt;&lt;b&gt;&lt;font style=&quot;font-size: 13px&quot;&gt;(Ws x C x 16)&lt;br&gt;&lt;/font&gt;&lt;/b&gt;&lt;/div&gt;" style="text;html=1;align=center;verticalAlign=middle;resizable=0;points=[];autosize=1;strokeColor=none;fillColor=none;fontSize=14;" vertex="1" parent="1">
          <mxGeometry x="535" y="416" width="100" height="20" as="geometry" />
        </mxCell>
        <mxCell id="dnEeHa7-O4VVZa1QLRPy-68" value="&lt;div&gt;&lt;b&gt;&lt;font style=&quot;font-size: 13px&quot;&gt;(Ws x C x 4)&lt;br&gt;&lt;/font&gt;&lt;/b&gt;&lt;/div&gt;" style="text;html=1;align=center;verticalAlign=middle;resizable=0;points=[];autosize=1;strokeColor=none;fillColor=none;fontSize=14;" vertex="1" parent="1">
          <mxGeometry x="1040" y="342" width="90" height="20" as="geometry" />
        </mxCell>
        <mxCell id="dnEeHa7-O4VVZa1QLRPy-69" value="&lt;div&gt;&lt;b&gt;&lt;font style=&quot;font-size: 13px&quot;&gt;(Ws x C x 1)&lt;br&gt;&lt;/font&gt;&lt;/b&gt;&lt;/div&gt;" style="text;html=1;align=center;verticalAlign=middle;resizable=0;points=[];autosize=1;strokeColor=none;fillColor=none;fontSize=14;" vertex="1" parent="1">
          <mxGeometry x="1235" y="322" width="90" height="20" as="geometry" />
        </mxCell>
        <mxCell id="dnEeHa7-O4VVZa1QLRPy-70" value="" style="whiteSpace=wrap;html=1;aspect=fixed;fillColor=#e1d5e7;strokeColor=#9673a6;" vertex="1" parent="1">
          <mxGeometry x="1080" y="226" width="80" height="80" as="geometry" />
        </mxCell>
        <mxCell id="dnEeHa7-O4VVZa1QLRPy-71" value="" style="whiteSpace=wrap;html=1;aspect=fixed;fillColor=#ffe6cc;strokeColor=#d79b00;" vertex="1" parent="1">
          <mxGeometry x="1070" y="236" width="80" height="80" as="geometry" />
        </mxCell>
        <mxCell id="dnEeHa7-O4VVZa1QLRPy-72" value="" style="whiteSpace=wrap;html=1;aspect=fixed;fillColor=#fff2cc;strokeColor=#d6b656;" vertex="1" parent="1">
          <mxGeometry x="1060" y="246" width="80" height="80" as="geometry" />
        </mxCell>
        <mxCell id="dnEeHa7-O4VVZa1QLRPy-73" value="" style="whiteSpace=wrap;html=1;aspect=fixed;fillColor=#d5e8d4;strokeColor=#82b366;" vertex="1" parent="1">
          <mxGeometry x="1050" y="256" width="80" height="80" as="geometry" />
        </mxCell>
        <mxCell id="dnEeHa7-O4VVZa1QLRPy-113" value="" style="whiteSpace=wrap;html=1;aspect=fixed;fillColor=#fad9d5;strokeColor=#ae4132;" vertex="1" parent="1">
          <mxGeometry x="1240" y="236" width="80" height="80" as="geometry" />
        </mxCell>
        <mxCell id="dnEeHa7-O4VVZa1QLRPy-114" value="" style="shape=flexArrow;endArrow=classic;html=1;rounded=0;endWidth=11.764705882352942;endSize=7.211764705882353;fillColor=#76608a;strokeColor=#432D57;" edge="1" parent="1">
          <mxGeometry width="50" height="50" relative="1" as="geometry">
            <mxPoint x="1170" y="280.5" as="sourcePoint" />
            <mxPoint x="1220" y="280.5" as="targetPoint" />
          </mxGeometry>
        </mxCell>
        <mxCell id="dnEeHa7-O4VVZa1QLRPy-117" value="" style="shape=flexArrow;endArrow=classic;html=1;rounded=0;endWidth=11.764705882352942;endSize=7.211764705882353;fillColor=#6d8764;strokeColor=#3A5431;" edge="1" parent="1">
          <mxGeometry width="50" height="50" relative="1" as="geometry">
            <mxPoint x="120" y="279.5" as="sourcePoint" />
            <mxPoint x="170" y="279.5" as="targetPoint" />
          </mxGeometry>
        </mxCell>
        <mxCell id="dnEeHa7-O4VVZa1QLRPy-124" value="" style="whiteSpace=wrap;html=1;aspect=fixed;fillColor=#ffe6cc;strokeColor=#d79b00;" vertex="1" parent="1">
          <mxGeometry x="900" y="204" width="80" height="80" as="geometry" />
        </mxCell>
        <mxCell id="dnEeHa7-O4VVZa1QLRPy-125" value="" style="whiteSpace=wrap;html=1;aspect=fixed;fillColor=#fff2cc;strokeColor=#d6b656;" vertex="1" parent="1">
          <mxGeometry x="890" y="214" width="80" height="80" as="geometry" />
        </mxCell>
        <mxCell id="dnEeHa7-O4VVZa1QLRPy-126" value="" style="whiteSpace=wrap;html=1;aspect=fixed;fillColor=#d5e8d4;strokeColor=#82b366;" vertex="1" parent="1">
          <mxGeometry x="880" y="224" width="80" height="80" as="geometry" />
        </mxCell>
        <mxCell id="dnEeHa7-O4VVZa1QLRPy-127" value="" style="whiteSpace=wrap;html=1;aspect=fixed;fillColor=#e1d5e7;strokeColor=#9673a6;" vertex="1" parent="1">
          <mxGeometry x="870" y="234" width="80" height="80" as="geometry" />
        </mxCell>
        <mxCell id="dnEeHa7-O4VVZa1QLRPy-128" value="" style="whiteSpace=wrap;html=1;aspect=fixed;fillColor=#ffe6cc;strokeColor=#d79b00;" vertex="1" parent="1">
          <mxGeometry x="860" y="244" width="80" height="80" as="geometry" />
        </mxCell>
        <mxCell id="dnEeHa7-O4VVZa1QLRPy-129" value="" style="whiteSpace=wrap;html=1;aspect=fixed;fillColor=#fff2cc;strokeColor=#d6b656;" vertex="1" parent="1">
          <mxGeometry x="850" y="254" width="80" height="80" as="geometry" />
        </mxCell>
        <mxCell id="dnEeHa7-O4VVZa1QLRPy-130" value="" style="whiteSpace=wrap;html=1;aspect=fixed;fillColor=#f5f5f5;fontColor=#333333;strokeColor=#666666;" vertex="1" parent="1">
          <mxGeometry x="840" y="264" width="80" height="80" as="geometry" />
        </mxCell>
        <mxCell id="dnEeHa7-O4VVZa1QLRPy-132" value="" style="whiteSpace=wrap;html=1;aspect=fixed;fillColor=#d5e8d4;strokeColor=#82b366;" vertex="1" parent="1">
          <mxGeometry x="830" y="274" width="80" height="80" as="geometry" />
        </mxCell>
        <mxCell id="dnEeHa7-O4VVZa1QLRPy-134" value="" style="shape=flexArrow;endArrow=classic;html=1;rounded=0;endWidth=11.764705882352942;endSize=7.211764705882353;fillColor=#76608a;strokeColor=#432D57;" edge="1" parent="1">
          <mxGeometry width="50" height="50" relative="1" as="geometry">
            <mxPoint x="990" y="280" as="sourcePoint" />
            <mxPoint x="1040" y="280" as="targetPoint" />
          </mxGeometry>
        </mxCell>
        <mxCell id="dnEeHa7-O4VVZa1QLRPy-135" value="&lt;div&gt;&lt;b&gt;&lt;font style=&quot;font-size: 13px&quot;&gt;(Ws x C x 8)&lt;br&gt;&lt;/font&gt;&lt;/b&gt;&lt;/div&gt;" style="text;whiteSpace=wrap;html=1;fontSize=12;" vertex="1" parent="1">
          <mxGeometry x="365" y="358" width="90" height="30" as="geometry" />
        </mxCell>
        <mxCell id="dnEeHa7-O4VVZa1QLRPy-136" value="" style="whiteSpace=wrap;html=1;aspect=fixed;fillColor=#ffe6cc;strokeColor=#d79b00;" vertex="1" parent="1">
          <mxGeometry x="430" y="204" width="80" height="80" as="geometry" />
        </mxCell>
        <mxCell id="dnEeHa7-O4VVZa1QLRPy-137" value="" style="whiteSpace=wrap;html=1;aspect=fixed;fillColor=#fff2cc;strokeColor=#d6b656;" vertex="1" parent="1">
          <mxGeometry x="420" y="214" width="80" height="80" as="geometry" />
        </mxCell>
        <mxCell id="dnEeHa7-O4VVZa1QLRPy-138" value="" style="whiteSpace=wrap;html=1;aspect=fixed;fillColor=#d5e8d4;strokeColor=#82b366;" vertex="1" parent="1">
          <mxGeometry x="410" y="224" width="80" height="80" as="geometry" />
        </mxCell>
        <mxCell id="dnEeHa7-O4VVZa1QLRPy-139" value="" style="whiteSpace=wrap;html=1;aspect=fixed;fillColor=#e1d5e7;strokeColor=#9673a6;" vertex="1" parent="1">
          <mxGeometry x="400" y="234" width="80" height="80" as="geometry" />
        </mxCell>
        <mxCell id="dnEeHa7-O4VVZa1QLRPy-140" value="" style="whiteSpace=wrap;html=1;aspect=fixed;fillColor=#ffe6cc;strokeColor=#d79b00;" vertex="1" parent="1">
          <mxGeometry x="390" y="244" width="80" height="80" as="geometry" />
        </mxCell>
        <mxCell id="dnEeHa7-O4VVZa1QLRPy-141" value="" style="whiteSpace=wrap;html=1;aspect=fixed;fillColor=#fff2cc;strokeColor=#d6b656;" vertex="1" parent="1">
          <mxGeometry x="380" y="254" width="80" height="80" as="geometry" />
        </mxCell>
        <mxCell id="dnEeHa7-O4VVZa1QLRPy-142" value="" style="whiteSpace=wrap;html=1;aspect=fixed;fillColor=#f5f5f5;fontColor=#333333;strokeColor=#666666;" vertex="1" parent="1">
          <mxGeometry x="370" y="264" width="80" height="80" as="geometry" />
        </mxCell>
        <mxCell id="dnEeHa7-O4VVZa1QLRPy-144" value="" style="whiteSpace=wrap;html=1;aspect=fixed;fillColor=#d5e8d4;strokeColor=#82b366;" vertex="1" parent="1">
          <mxGeometry x="360" y="276" width="80" height="80" as="geometry" />
        </mxCell>
        <mxCell id="dnEeHa7-O4VVZa1QLRPy-145" value="&lt;div&gt;&lt;i&gt;&lt;b&gt;&lt;font style=&quot;font-size: 12px&quot;&gt;&lt;font style=&quot;font-size: 12px&quot;&gt;K &lt;/font&gt;3x3&lt;/font&gt;&lt;/b&gt;&lt;/i&gt;&lt;/div&gt;&lt;div&gt;&lt;i&gt;&lt;b&gt;&lt;font style=&quot;font-size: 12px&quot;&gt;filters 16&lt;br&gt;&lt;/font&gt;&lt;/b&gt;&lt;/i&gt;&lt;/div&gt;" style="text;html=1;align=center;verticalAlign=middle;resizable=0;points=[];autosize=1;strokeColor=none;fillColor=none;fontSize=12;" vertex="1" parent="1">
          <mxGeometry x="535" y="205" width="60" height="30" as="geometry" />
        </mxCell>
        <mxCell id="dnEeHa7-O4VVZa1QLRPy-146" value="&lt;b&gt;&lt;font style=&quot;font-size: 14px&quot;&gt;Output&lt;/font&gt;&lt;/b&gt;" style="text;html=1;align=center;verticalAlign=middle;resizable=0;points=[];autosize=1;strokeColor=none;fillColor=none;fontSize=12;" vertex="1" parent="1">
          <mxGeometry x="1250" y="210" width="60" height="20" as="geometry" />
        </mxCell>
        <mxCell id="dnEeHa7-O4VVZa1QLRPy-147" value="&lt;div&gt;&lt;i&gt;&lt;b&gt;&lt;font style=&quot;font-size: 12px&quot;&gt;&lt;font style=&quot;font-size: 12px&quot;&gt;K &lt;/font&gt;3x3&lt;/font&gt;&lt;/b&gt;&lt;/i&gt;&lt;/div&gt;&lt;div&gt;&lt;i&gt;&lt;b&gt;&lt;font style=&quot;font-size: 12px&quot;&gt;filters 8&lt;br&gt;&lt;/font&gt;&lt;/b&gt;&lt;/i&gt;&lt;/div&gt;" style="text;html=1;align=center;verticalAlign=middle;resizable=0;points=[];autosize=1;strokeColor=none;fillColor=none;fontSize=12;" vertex="1" parent="1">
          <mxGeometry x="795" y="201" width="60" height="30" as="geometry" />
        </mxCell>
        <mxCell id="dnEeHa7-O4VVZa1QLRPy-148" value="&lt;div&gt;&lt;i&gt;&lt;b&gt;&lt;font style=&quot;font-size: 12px&quot;&gt;&lt;font style=&quot;font-size: 12px&quot;&gt;K &lt;/font&gt;3x3&lt;/font&gt;&lt;/b&gt;&lt;/i&gt;&lt;/div&gt;&lt;div&gt;&lt;i&gt;&lt;b&gt;&lt;font style=&quot;font-size: 12px&quot;&gt;filters 4&lt;br&gt;&lt;/font&gt;&lt;/b&gt;&lt;/i&gt;&lt;/div&gt;" style="text;html=1;align=center;verticalAlign=middle;resizable=0;points=[];autosize=1;strokeColor=none;fillColor=none;fontSize=12;" vertex="1" parent="1">
          <mxGeometry x="995" y="201" width="60" height="30" as="geometry" />
        </mxCell>
        <mxCell id="dnEeHa7-O4VVZa1QLRPy-149" value="&lt;div&gt;&lt;i&gt;&lt;b&gt;&lt;font style=&quot;font-size: 12px&quot;&gt;&lt;font style=&quot;font-size: 12px&quot;&gt;K &lt;/font&gt;3x3&lt;/font&gt;&lt;/b&gt;&lt;/i&gt;&lt;/div&gt;&lt;div&gt;&lt;i&gt;&lt;b&gt;&lt;font style=&quot;font-size: 12px&quot;&gt;filters 1&lt;br&gt;&lt;/font&gt;&lt;/b&gt;&lt;/i&gt;&lt;/div&gt;" style="text;html=1;align=center;verticalAlign=middle;resizable=0;points=[];autosize=1;strokeColor=none;fillColor=none;fontSize=12;" vertex="1" parent="1">
          <mxGeometry x="1175" y="201" width="60" height="30" as="geometry" />
        </mxCell>
        <mxCell id="dnEeHa7-O4VVZa1QLRPy-150" value="" style="shape=flexArrow;endArrow=classic;html=1;rounded=0;endWidth=11.764705882352942;endSize=7.211764705882353;fillColor=#6d8764;strokeColor=#3A5431;" edge="1" parent="1">
          <mxGeometry width="50" height="50" relative="1" as="geometry">
            <mxPoint x="640" y="519.41" as="sourcePoint" />
            <mxPoint x="690" y="519.41" as="targetPoint" />
          </mxGeometry>
        </mxCell>
        <mxCell id="dnEeHa7-O4VVZa1QLRPy-151" value="" style="shape=flexArrow;endArrow=classic;html=1;rounded=0;endWidth=11.764705882352942;endSize=7.211764705882353;fillColor=#76608a;strokeColor=#432D57;" edge="1" parent="1">
          <mxGeometry width="50" height="50" relative="1" as="geometry">
            <mxPoint x="640" y="560" as="sourcePoint" />
            <mxPoint x="690" y="560" as="targetPoint" />
          </mxGeometry>
        </mxCell>
        <mxCell id="dnEeHa7-O4VVZa1QLRPy-152" value="&lt;b&gt;&lt;font style=&quot;font-size: 15px&quot;&gt;Conv2D&lt;/font&gt;&lt;/b&gt;" style="text;html=1;align=center;verticalAlign=middle;resizable=0;points=[];autosize=1;strokeColor=none;fillColor=none;fontSize=14;" vertex="1" parent="1">
          <mxGeometry x="694" y="510" width="70" height="20" as="geometry" />
        </mxCell>
        <mxCell id="dnEeHa7-O4VVZa1QLRPy-153" value="&lt;font style=&quot;font-size: 15px&quot;&gt;&lt;b&gt;&lt;font style=&quot;font-size: 15px&quot;&gt;Conv2D&lt;/font&gt;Transpose&lt;/b&gt;&lt;/font&gt;" style="text;html=1;align=center;verticalAlign=middle;resizable=0;points=[];autosize=1;strokeColor=none;fillColor=none;fontSize=14;" vertex="1" parent="1">
          <mxGeometry x="690" y="550" width="150" height="20" as="geometry" />
        </mxCell>
      </root>
    </mxGraphModel>
  </diagram>
</mxfile>
